<svg version="1.1" xmlns="http://www.w3.org/2000/svg" xmlns:xlink="http://www.w3.org/1999/xlink" xml:space="preserve">
    <symbol id="logo" viewBox="0 0 180 146">
        <path d="M180,17.3c-6.6,2.9-13.7,4.9-21.2,5.8c7.6-4.6,13.5-11.8,16.2-20.4c-7.1,4.2-15,7.3-23.5,8.9C144.8,4.5,135.2,0,124.6,0
            c-20.4,0-36.9,16.5-36.9,36.9c0,2.9,0.3,5.7,1,8.4C58,43.7,30.8,29,12.5,6.7c-3.2,5.4-5,11.8-5,18.5C7.5,38.1,14.1,49.3,24,56
            c-6.1-0.2-11.7-1.8-16.7-4.6c0,0.2,0,0.3,0,0.5C7.2,69.7,20,84.6,36.9,88c-3.1,0.8-6.4,1.3-9.7,1.3c-2.4,0-4.7-0.2-6.9-0.7
            c4.7,14.6,18.3,25.3,34.5,25.6C42,124.1,26.1,130,8.8,130c-3,0-5.9-0.2-8.8-0.5C16.3,139.9,35.8,146,56.6,146
            c67.9,0,105.1-56.2,105.1-104.9c0-1.6,0-3.2-0.1-4.8C168.8,31.2,175,24.7,180,17.3z"/>
    </symbol>
    <symbol id="like" viewBox="0 0 35 28">
        <path class="st0" d="M25.8,0c-3.6,0-6.8,2.1-8.3,5.1C16,2.1,12.9,0,9.2,0C4.1,0,0,4.1,0,9.2C0,21.4,17.3,28,17.3,28S35,21.3,35,9.2
            C35,4.1,30.9,0,25.8,0L25.8,0z"/>
    </symbol>
    <symbol id="reply" viewBox="0 0 38 28">
        <path d="M24.9,10.5h-8.2V2.8c0-1.1-0.7-2.2-1.7-2.6c-1-0.4-2.2-0.2-3,0.6L0.8,12c-1.1,1.1-1.1,2.9,0,4L12,27.2
            c0.5,0.5,1.2,0.8,2,0.8c0.4,0,0.7-0.1,1.1-0.2c1-0.4,1.7-1.5,1.7-2.6v-7.7h8.2c3.3,0,6,2.5,6,5.6v1.3c0,2,1.6,3.5,3.5,3.5
            s3.5-1.6,3.5-3.5v-1.3C38,16.2,32.1,10.5,24.9,10.5z"/>
    </symbol>
    <symbol id="retweet" viewBox="0 0 50 28">
        <path d="M25.2,22.4H13.1v-9.3h4.7c1.1,0,2.2-0.7,2.6-1.7c0.4-1,0.2-2.3-0.6-3.1l-7.5-7.5c-1.1-1.1-2.9-1.1-4,0L0.8,8.3
            c-0.8,0.8-1,2-0.6,3.1c0.4,1,1.5,1.7,2.6,1.7h4.7v12.1c0,1.5,1.3,2.8,2.8,2.8h14.9c1.5,0,2.8-1.3,2.8-2.8
            C28,23.7,26.7,22.4,25.2,22.4z"/>
        <path d="M49.8,16.7c-0.4-1-1.5-1.7-2.6-1.7h-4.7V2.8c0-1.5-1.3-2.8-2.8-2.8H24.8C23.3,0,22,1.3,22,2.8s1.3,2.8,2.8,2.8h12.1v9.3
            h-4.7c-1.1,0-2.2,0.7-2.6,1.7c-0.4,1-0.2,2.3,0.6,3.1l7.5,7.5c0.5,0.5,1.3,0.8,2,0.8c0.7,0,1.4-0.3,2-0.8l7.5-7.5
            C50,18.9,50.2,17.7,49.8,16.7z"/>
    </symbol>
    <symbol id="letter" viewBox="0 0 511.626 511.626">
        <path d="M49.106,178.729c6.472,4.567,25.981,18.131,58.528,40.685c32.548,22.554,57.482,39.92,74.803,52.099
			c1.903,1.335,5.946,4.237,12.131,8.71c6.186,4.476,11.326,8.093,15.416,10.852c4.093,2.758,9.041,5.852,14.849,9.277
			c5.806,3.422,11.279,5.996,16.418,7.7c5.14,1.718,9.898,2.569,14.275,2.569h0.287h0.288c4.377,0,9.137-0.852,14.277-2.569
			c5.137-1.704,10.615-4.281,16.416-7.7c5.804-3.429,10.752-6.52,14.845-9.277c4.093-2.759,9.229-6.376,15.417-10.852
			c6.184-4.477,10.232-7.375,12.135-8.71c17.508-12.179,62.051-43.11,133.615-92.79c13.894-9.703,25.502-21.411,34.827-35.116
			c9.332-13.699,13.993-28.07,13.993-43.105c0-12.564-4.523-23.319-13.565-32.264c-9.041-8.947-19.749-13.418-32.117-13.418H45.679
			c-14.655,0-25.933,4.948-33.832,14.844C3.949,79.562,0,91.934,0,106.779c0,11.991,5.236,24.985,15.703,38.974
			C26.169,159.743,37.307,170.736,49.106,178.729z"/>
		<path d="M483.072,209.275c-62.424,42.251-109.824,75.087-142.177,98.501c-10.849,7.991-19.65,14.229-26.409,18.699
			c-6.759,4.473-15.748,9.041-26.98,13.702c-11.228,4.668-21.692,6.995-31.401,6.995h-0.291h-0.287
			c-9.707,0-20.177-2.327-31.405-6.995c-11.228-4.661-20.223-9.229-26.98-13.702c-6.755-4.47-15.559-10.708-26.407-18.699
			c-25.697-18.842-72.995-51.68-141.896-98.501C17.987,202.047,8.375,193.762,0,184.437v226.685c0,12.57,4.471,23.319,13.418,32.265
			c8.945,8.949,19.701,13.422,32.264,13.422h420.266c12.56,0,23.315-4.473,32.261-13.422c8.949-8.949,13.418-19.694,13.418-32.265
			V184.437C503.441,193.569,493.927,201.854,483.072,209.275z"/>
    </symbol>
</svg>
